<svg width="100%" height="100%" viewBox="0 0 24 24" fill="none" xmlns="http://www.w3.org/2000/svg">
<path fill-rule="evenodd" clip-rule="evenodd" d="M16.4613 17.736C16.8133 18.0879 17.384 18.0879 17.736 17.736C18.088 17.384 18.088 16.8133 17.736 16.4613L13.2747 12L17.736 7.53871C18.0879 7.18672 18.0879 6.61603 17.736 6.26404C17.384 5.91206 16.8133 5.91206 16.4613 6.26404L12 10.7253L7.53866 6.26399C7.18668 5.912 6.61599 5.912 6.264 6.26399C5.91201 6.61598 5.91201 7.18667 6.264 7.53865L10.7253 12L6.26399 16.4613C5.912 16.8133 5.912 17.384 6.26399 17.736C6.61598 18.088 7.18667 18.088 7.53865 17.736L12 13.2747L16.4613 17.736Z" fill="currentColor"/>
</svg>
